<svg width="56" height="34" viewBox="0 0 56 34" fill="none" xmlns="http://www.w3.org/2000/svg">
<path d="M36.014 5.34311C36.0266 5.29275 36.0366 5.24491 36.0491 5.19455C36.0642 5.19455 36.0792 5.19958 36.0942 5.2021C36.0817 5.32296 36.1093 5.47152 36.0491 5.56217C35.9513 5.71073 35.9162 6.07835 36.024 6.2395C36.0767 6.32008 36.0992 6.42079 36.1343 6.51144C36.1118 6.52151 36.0917 6.53158 36.0692 6.54166C36.0466 6.50137 36.0215 6.46108 35.9965 6.42079C35.9889 6.43087 35.9714 6.44346 35.9714 6.45353C35.994 6.74561 36.0115 7.03769 36.0416 7.32978C36.0616 7.50352 36.0015 7.70495 36.1995 7.83085C36.2296 7.851 36.2296 7.98696 36.1945 8.02977C36.0416 8.21862 36.0942 8.37473 36.2346 8.53588C36.2622 8.5661 36.2797 8.61645 36.2797 8.65674C36.2772 8.93624 36.2471 9.21825 36.2672 9.49774C36.2948 9.9132 36.3549 10.3261 36.4051 10.7391C36.4101 10.7895 36.4627 10.8297 36.4828 10.8801C36.5053 10.933 36.553 11.0161 36.5329 11.0438C36.3399 11.3082 36.4577 11.6002 36.4703 11.8722C36.5455 13.3829 36.6407 14.8937 36.731 16.402C36.751 16.7419 36.7209 17.107 36.8438 17.4092C36.9415 17.6484 36.9365 17.8322 36.8914 18.0563C36.8738 18.1444 36.9014 18.2426 36.9114 18.3534C36.9641 18.3408 37.0017 18.3282 37.0543 18.3156C37.0593 18.3559 37.0769 18.3987 37.0644 18.4315C36.8663 18.9174 37.102 19.3581 37.2047 19.8113C37.2123 19.8465 37.2499 19.8868 37.2448 19.9145C37.1446 20.3376 37.3025 20.7001 37.473 21.0703C37.5181 21.1685 37.6785 21.3246 37.4579 21.4404C37.4529 21.4404 37.493 21.5915 37.5432 21.6242C37.6509 21.6922 37.686 21.7426 37.5757 21.8357C37.5507 21.8559 37.5256 21.9088 37.5356 21.9339C37.6359 22.2285 37.5858 22.5785 37.8039 22.7623C37.8039 22.926 37.7838 23.0444 37.8089 23.1551C37.8841 23.4926 37.9869 23.8249 38.0596 24.1648C38.1022 24.3562 38.1047 24.5551 38.1348 24.749C38.1423 24.8044 38.1824 24.8523 38.2075 24.9051C38.2551 24.8623 38.3278 24.8296 38.3503 24.7767C38.4832 24.4469 38.596 24.112 38.7289 23.7821C38.9294 23.2861 39.1475 22.7976 39.348 22.3016C39.5636 21.7678 39.7541 21.2239 39.9772 20.6951C40.2856 19.9674 40.6064 19.2448 40.9348 18.5271C41.1354 18.089 41.3384 17.6509 41.5766 17.2354C41.8398 16.7721 42.1556 16.339 42.4289 15.8833C42.7623 15.3293 43.0681 14.7603 43.4015 14.2063C43.6447 13.8009 43.9204 13.4157 44.1636 13.0128C44.3415 12.7182 44.4844 12.406 44.6524 12.1038C44.7251 11.9754 44.8228 11.8621 44.8981 11.7362C45.4646 10.7668 46.0361 9.79738 46.5951 8.82293C46.9285 8.23876 47.2319 7.63697 47.5753 7.06036C47.8185 6.64741 48.1293 6.27475 48.3699 5.86181C48.8939 4.96038 49.4203 4.05643 49.8865 3.12479C50.1147 2.66904 50.3578 2.23091 50.6536 1.81797C50.7138 1.73236 50.8366 1.69459 50.9319 1.63416C50.9594 1.61905 50.9945 1.61653 51.0171 1.59639C51.4382 1.20107 51.9998 1.18848 52.5137 1.06761C52.842 0.992076 53.1855 0.969414 53.5264 1.06761C53.6191 1.09531 53.7345 1.03488 53.8397 1.01474C53.9902 0.984522 54.1381 0.941716 54.2885 0.924091C54.4489 0.906465 54.6118 0.911501 54.7723 0.903947C54.9828 0.893875 55.1909 0.868696 55.4015 0.871214C55.4817 0.871214 55.5995 0.911501 55.6321 0.971932C55.785 1.24891 56.0658 1.48811 55.9379 1.86833C55.9129 1.94135 55.9479 2.03451 55.968 2.1176C56.0382 2.41472 56.0031 2.7194 55.7599 2.9309C55.5393 3.12227 55.3739 3.38665 55.2185 3.64097C54.8675 4.21758 54.5391 4.81182 54.1957 5.39347C54.128 5.50678 54.0052 5.58483 53.9375 5.69814C53.8197 5.89706 53.7345 6.1136 53.6166 6.31252C53.4687 6.56432 53.3083 6.80856 53.1404 7.04777C52.9549 7.30963 52.7493 7.55639 52.5563 7.81071C52.5362 7.83589 52.5437 7.88121 52.5312 7.91394C52.4936 7.99955 52.4535 8.08768 52.4084 8.17078C52.3683 8.24883 52.3181 8.32437 52.278 8.40495C52.2555 8.44775 52.2555 8.52329 52.2254 8.53336C51.9346 8.62904 51.9622 8.92868 51.8293 9.1276C51.6263 9.43227 51.3981 9.71932 51.2051 10.029C50.8216 10.6459 50.4631 11.2754 50.0821 11.8898C49.8239 12.3053 49.5281 12.6955 49.2699 13.111C48.9465 13.6272 48.6507 14.161 48.3349 14.6797C48.0992 15.07 47.8485 15.4527 47.6079 15.8405C47.2519 16.4171 46.8834 16.9861 46.5475 17.5728C46.1865 18.2048 45.8356 18.8419 45.5247 19.4966C45.1788 20.2318 44.883 20.9922 44.5647 21.7401C44.3415 22.2613 44.1134 22.7825 43.8903 23.3037C43.6346 23.9055 43.3965 24.5123 43.1258 25.1066C42.8325 25.7512 42.5141 26.3832 42.2008 27.0152C41.9576 27.5062 41.7119 27.9972 41.4537 28.4806C41.2983 28.7702 41.1053 29.0396 40.9474 29.3292C40.8571 29.4979 40.807 29.6892 40.7318 29.8655C40.6641 30.0216 40.5764 30.1702 40.5112 30.3288C40.3858 30.6259 40.2981 30.9407 40.1427 31.2177C39.9923 31.4921 39.7717 31.7187 39.4232 31.754C39.3581 31.7615 39.2778 31.7968 39.2352 31.8471C38.9645 32.1518 38.5559 32.2022 38.2275 32.3986C38.1874 32.4212 38.1172 32.4288 38.1047 32.459C37.9969 32.7637 37.7412 32.7712 37.4855 32.7989C37.4253 32.8065 37.3276 32.8594 37.3201 32.9022C37.2825 33.1212 37.132 33.1036 36.9866 33.0885C36.7986 33.3227 36.6783 33.6399 36.2822 33.5493C36.2622 33.6273 36.2471 33.6928 36.2446 33.7004C35.9112 33.8086 35.6179 33.9043 35.3246 34L35.3472 33.9194C35.2394 33.859 35.1316 33.7986 35.0213 33.7381C34.9536 33.7004 34.8684 33.6827 34.8183 33.6299C34.5726 33.3554 34.3194 33.0835 34.2969 32.6806C34.2893 32.5723 34.2543 32.4615 34.2041 32.3633C34.0086 31.9831 33.9559 31.5676 33.8782 31.1547C33.8456 30.981 33.8782 30.7795 33.6978 30.6184C33.6075 30.5378 33.6752 30.2986 33.6401 30.1349C33.59 29.9058 33.5072 29.6842 33.4521 29.4576C33.407 29.2713 33.3944 29.0749 33.3493 28.8885C33.2891 28.6468 33.2541 28.4001 33.1212 28.1709C33.036 28.0224 33.0685 27.8083 33.0335 27.627C32.9357 27.1159 32.8379 26.6048 32.7251 26.0986C32.6399 25.7134 32.5196 25.3382 32.4343 24.953C32.2438 24.0918 32.0633 23.2282 31.8828 22.3645C31.7851 21.8937 31.6848 21.4228 31.6096 20.9494C31.5194 20.3804 31.4818 19.8037 31.3715 19.2397C31.2712 18.7235 31.2461 18.2023 31.2085 17.6836C31.1559 16.961 31.1358 16.2358 31.0882 15.5106C31.0606 15.0926 31.003 14.6797 30.9704 14.2617C30.9403 13.8765 30.9403 13.4862 30.9077 13.1009C30.8526 12.4261 30.7874 11.7513 30.7147 11.079C30.6645 10.6233 30.5918 10.17 30.5392 9.71428C30.5041 9.41716 30.4891 9.11753 30.454 8.82041C30.4389 8.68444 30.3863 8.55099 30.3713 8.4125C30.3587 8.29164 30.3863 8.16574 30.3763 8.04236C30.3487 7.642 30.3161 7.24165 30.2735 6.84381C30.266 6.76827 30.2133 6.69777 30.1857 6.63734C30.2133 6.5618 30.2685 6.48374 30.266 6.4082C30.2484 6.01288 30.2284 5.61757 30.1832 5.22476C30.1507 4.93772 30.093 4.65319 30.0228 4.37369C30.0078 4.31074 29.8599 4.21758 29.8373 4.23269C29.6593 4.35859 29.5014 4.21254 29.3385 4.21758C29.0101 4.22765 28.6792 4.25283 28.3508 4.27298C27.9848 4.29564 27.6188 4.32334 27.2528 4.34851C26.5559 4.39636 25.8565 4.45175 25.1571 4.487C24.4728 4.52225 23.7884 4.52981 23.1041 4.56002C22.7256 4.57765 22.3495 4.61794 21.971 4.63556C21.7605 4.64563 21.5474 4.63053 21.3343 4.62801C21.1789 4.62549 21.1237 4.66578 21.1789 4.84203C21.3393 5.36829 21.4797 5.89958 21.6301 6.43087C21.6376 6.45353 21.6401 6.47871 21.6527 6.49885C21.9334 6.95964 21.9485 7.49596 22.0663 8.00207C22.1966 8.56609 22.2844 9.14019 22.3646 9.71428C22.4498 10.3161 22.4649 10.9305 22.5852 11.5247C22.703 12.1139 22.7206 12.7006 22.6829 13.2923C22.6378 13.9923 22.5676 14.6923 22.51 15.3898C22.51 15.3973 22.51 15.4049 22.51 15.4124C22.5877 15.8505 22.4172 16.2559 22.342 16.6739C22.2142 17.389 22.0713 18.1016 21.9535 18.8167C21.8833 19.2422 21.8682 19.6778 21.783 20.1009C21.7354 20.3426 21.605 20.5692 21.5048 20.7983C21.2065 21.4857 20.9207 22.1782 20.5973 22.853C20.3567 23.3591 20.0809 23.8476 19.7926 24.3285C19.4617 24.8825 19.1208 25.4314 18.7473 25.9576C18.2835 26.6098 17.7546 27.2091 17.1956 27.7806C17.0828 27.8939 16.9976 28.035 16.8797 28.1457C16.5965 28.4152 16.3057 28.6745 16.0099 28.9313C15.8194 29.095 15.6213 29.2536 15.4208 29.4022C14.9596 29.7421 14.4958 30.077 14.0295 30.4119C13.9794 30.4497 13.9243 30.4824 13.8691 30.5126C13.7087 30.5982 13.7087 30.5982 13.7413 30.7367C13.5883 30.8349 13.443 30.918 13.3076 31.0187C13.0494 31.2101 12.7837 31.3964 12.5455 31.6105C11.979 32.1216 11.2721 32.3608 10.5802 32.6076C10.1791 32.7511 9.73041 32.7561 9.31177 32.8619C8.68508 33.0205 8.05337 33.0356 7.41414 33.0155C7.29131 33.013 7.16848 32.9727 7.04564 32.9425C6.9178 32.9097 6.79497 32.8619 6.66712 32.8291C6.09307 32.6831 5.5516 32.4489 5.02768 32.172C4.71434 32.0058 4.38344 31.8622 4.10519 31.6507C3.74421 31.3763 3.41582 31.054 3.08994 30.7342C2.65125 30.3036 2.2251 29.8605 1.80146 29.4173C1.5959 29.2008 1.35775 28.9943 1.21737 28.7375C0.871439 28.113 0.568118 27.4659 0.254771 26.8238C0.214662 26.7432 0.234716 26.6375 0.214662 26.5443C0.0291601 25.6832 0.159513 24.8094 0.116897 23.9433C0.111884 23.8652 0.0366805 23.7922 0.019133 23.7116C0.00158552 23.626 -0.0109484 23.5278 0.0141194 23.4447C0.0818025 23.2105 0.167033 22.9814 0.249757 22.7523C0.264798 22.712 0.307413 22.6818 0.340001 22.649C0.470354 22.5156 0.603213 22.3872 0.728552 22.2487C0.838851 22.1278 0.936615 21.9918 1.04441 21.871C1.26751 21.6192 1.54326 21.3976 1.7062 21.1106C1.8566 20.8487 2.06467 20.821 2.2978 20.7354C2.50085 20.6624 2.68384 20.4962 2.83425 20.3325C3.02978 20.121 3.17768 19.8642 3.35817 19.6376C3.51359 19.4437 3.9623 19.4286 4.16034 19.5897C4.26311 19.6728 4.38093 19.7433 4.49625 19.8088C4.93243 20.053 5.09787 20.4685 5.19814 20.9242C5.20567 20.9545 5.19814 20.9872 5.19313 21.0174C5.15052 21.4178 5.10289 21.8181 5.06278 22.216C5.03771 22.4602 4.9976 22.7044 5.01014 22.9487C5.04272 23.5253 5.08283 24.0943 5.46136 24.5904C5.72958 24.9429 5.88751 25.381 6.15824 25.731C6.4766 26.144 6.85262 26.5166 7.22363 26.8842C7.48934 27.1486 7.7676 27.4181 8.08094 27.617C8.54721 27.9116 9.03603 28.1911 9.5449 28.395C9.92844 28.5486 10.3621 28.6393 10.7782 28.6519C11.4225 28.672 12.0617 28.5486 12.6959 28.4051C13.1672 28.2993 13.3853 27.9519 13.631 27.627C13.9619 27.1864 14.2677 26.7231 14.5409 26.2447C14.6512 26.0483 14.769 25.8544 14.8793 25.6605C14.9295 25.5724 14.927 25.454 14.937 25.4037C15.0749 25.1897 15.2077 25.021 15.298 24.8296C15.6339 24.1145 15.9698 23.3969 16.2756 22.6692C16.3784 22.4224 16.3934 22.1354 16.4511 21.8685C16.5263 21.526 16.604 21.1836 16.6792 20.8411C16.6867 20.8109 16.7018 20.7782 16.6993 20.748C16.6892 20.2469 16.8447 19.771 16.9224 19.2825C16.99 18.852 17.0302 18.4163 17.0878 17.9807C17.148 17.5149 17.2432 17.0491 17.2708 16.5808C17.3109 15.8782 17.3134 15.1732 17.3159 14.4682C17.3159 14.0829 17.3159 13.6901 17.2608 13.3099C17.1179 12.333 16.9625 11.3585 16.777 10.3891C16.6466 9.70169 16.4711 9.02436 16.2932 8.34703C16.2255 8.0902 16.0951 7.851 16.0049 7.5992C15.8269 7.11071 15.6765 6.61216 15.4785 6.13123C15.298 5.6931 15.0774 5.27261 14.8618 4.85211C14.7941 4.72117 14.6838 4.6129 14.5936 4.49204C14.5184 4.39384 14.4432 4.29564 14.368 4.19492C14.3504 4.16974 14.3429 4.11434 14.3253 4.11434C14.0396 4.08413 14.0947 3.80967 13.9995 3.64852C13.9042 3.48989 14.0546 3.06687 14.2251 2.8881C14.2978 2.81256 14.3304 2.69925 14.403 2.62371C14.5685 2.44997 14.739 2.27875 14.9194 2.12516C15.13 1.94386 15.3556 1.7802 15.5737 1.60898C15.6364 1.56113 15.694 1.50826 15.7617 1.46545C15.9121 1.36977 16.0575 1.26402 16.218 1.19351C16.406 1.11042 16.6115 1.0651 16.8071 0.99963C16.8747 0.976968 16.96 0.96186 16.9976 0.914019C17.1229 0.755388 17.2683 0.689921 17.4764 0.674813C17.5942 0.667259 17.6945 0.496038 17.8198 0.445679C18.0329 0.360068 18.261 0.264386 18.4816 0.261868C18.6972 0.25935 18.9077 0.334888 19.0281 0C19.0632 0.115826 19.0857 0.151078 19.0807 0.181293C19.0356 0.483448 19.0356 0.488484 19.3514 0.496038C20.116 0.516182 20.8806 0.516181 21.6451 0.551433C22.3119 0.581648 22.9788 0.654669 23.6456 0.697475C23.9288 0.7151 24.2146 0.712582 24.4979 0.7151C24.9215 0.720136 25.3426 0.720136 25.7663 0.725172C26.1523 0.730208 26.5384 0.742798 26.9244 0.74028C27.3431 0.737762 27.7592 0.725172 28.1778 0.710064C29.5716 0.659705 30.9679 0.60431 32.3616 0.556469C32.9181 0.538843 33.4772 0.541361 34.0337 0.523735C34.154 0.518699 34.2768 0.475894 34.3921 0.433089C34.5776 0.362586 34.718 0.392802 34.891 0.511146C35.084 0.642079 35.2194 0.795675 35.3196 0.994594C35.3973 1.14567 35.4776 1.29171 35.5578 1.44027C35.5753 1.47552 35.5854 1.52337 35.6129 1.54351C36.0441 1.87336 35.8636 2.32408 35.8586 2.74457C35.8561 2.9586 35.8185 3.16507 35.9037 3.39673C35.9539 3.53521 36.1419 3.77694 35.9137 4.01363C35.826 4.10679 35.8837 4.41398 35.9639 4.58017C36.0491 4.75894 36.0491 4.89995 35.9889 5.06865C35.9614 5.14671 35.9589 5.23232 35.9438 5.31289C35.9614 5.31541 35.9814 5.32045 35.999 5.32296L36.014 5.34311Z" fill="white"/>
</svg>
