<svg width="124" height="186" viewBox="0 0 124 186" fill="none" xmlns="http://www.w3.org/2000/svg">
<path fill-rule="evenodd" clip-rule="evenodd" d="M124 62C124 27.7583 96.2417 0 62 0C27.7583 0 0 27.7583 0 62V186H124V62Z" fill="white"/>
<path d="M70.014 40.3431C70.0266 40.2927 70.0366 40.2449 70.0491 40.1945C70.0642 40.1945 70.0792 40.1996 70.0942 40.2021C70.0817 40.323 70.1093 40.4715 70.0491 40.5622C69.9513 40.7107 69.9163 41.0784 70.024 41.2395C70.0767 41.3201 70.0992 41.4208 70.1343 41.5114C70.1118 41.5215 70.0917 41.5316 70.0692 41.5417C70.0466 41.5014 70.0215 41.4611 69.9965 41.4208C69.989 41.4309 69.9714 41.4435 69.9714 41.4535C69.994 41.7456 70.0115 42.0377 70.0416 42.3298C70.0616 42.5035 70.0015 42.705 70.1995 42.8309C70.2296 42.851 70.2296 42.987 70.1945 43.0298C70.0416 43.2186 70.0942 43.3747 70.2346 43.5359C70.2622 43.5661 70.2797 43.6165 70.2797 43.6567C70.2772 43.9362 70.2471 44.2182 70.2672 44.4977C70.2948 44.9132 70.3549 45.3261 70.4051 45.7391C70.4101 45.7895 70.4627 45.8297 70.4828 45.8801C70.5053 45.933 70.553 46.0161 70.5329 46.0438C70.3399 46.3082 70.4577 46.6002 70.4703 46.8722C70.5455 48.383 70.6407 49.8937 70.731 51.402C70.751 51.7419 70.7209 52.107 70.8438 52.4092C70.9415 52.6484 70.9365 52.8322 70.8914 53.0563C70.8738 53.1444 70.9014 53.2426 70.9114 53.3534C70.9641 53.3408 71.0017 53.3282 71.0543 53.3156C71.0593 53.3559 71.0769 53.3987 71.0644 53.4315C70.8663 53.9174 71.102 54.3581 71.2047 54.8113C71.2123 54.8465 71.2499 54.8868 71.2448 54.9145C71.1446 55.3376 71.3025 55.7001 71.473 56.0703C71.5181 56.1685 71.6785 56.3246 71.4579 56.4404C71.4529 56.4404 71.493 56.5915 71.5432 56.6242C71.6509 56.6922 71.686 56.7426 71.5757 56.8357C71.5507 56.8559 71.5256 56.9088 71.5356 56.9339C71.6359 57.2285 71.5858 57.5785 71.8039 57.7623C71.8039 57.926 71.7838 58.0444 71.8089 58.1551C71.8841 58.4926 71.9869 58.8249 72.0596 59.1648C72.1022 59.3562 72.1047 59.5551 72.1348 59.749C72.1423 59.8044 72.1824 59.8523 72.2075 59.9051C72.2551 59.8623 72.3278 59.8296 72.3503 59.7767C72.4832 59.4469 72.596 59.112 72.7289 58.7821C72.9294 58.2861 73.1475 57.7976 73.348 57.3016C73.5636 56.7678 73.7541 56.2239 73.9772 55.6951C74.2856 54.9674 74.6064 54.2448 74.9348 53.5271C75.1354 53.089 75.3384 52.6509 75.5766 52.2354C75.8398 51.7721 76.1556 51.339 76.4289 50.8833C76.7623 50.3293 77.0681 49.7603 77.4015 49.2063C77.6447 48.8009 77.9204 48.4157 78.1636 48.0128C78.3415 47.7182 78.4844 47.406 78.6524 47.1038C78.7251 46.9754 78.8228 46.8621 78.8981 46.7362C79.4646 45.7668 80.0361 44.7974 80.5951 43.8229C80.9285 43.2388 81.2319 42.637 81.5753 42.0604C81.8185 41.6474 82.1293 41.2748 82.3699 40.8618C82.8939 39.9604 83.4203 39.0564 83.8865 38.1248C84.1147 37.669 84.3578 37.2309 84.6536 36.818C84.7138 36.7324 84.8366 36.6946 84.9319 36.6342C84.9594 36.619 84.9945 36.6165 85.0171 36.5964C85.4382 36.2011 85.9998 36.1885 86.5137 36.0676C86.842 35.9921 87.1855 35.9694 87.5264 36.0676C87.6191 36.0953 87.7345 36.0349 87.8397 36.0147C87.9902 35.9845 88.138 35.9417 88.2885 35.9241C88.4489 35.9065 88.6118 35.9115 88.7723 35.9039C88.9828 35.8939 89.1909 35.8687 89.4015 35.8712C89.4817 35.8712 89.5995 35.9115 89.6321 35.9719C89.785 36.2489 90.0658 36.4881 89.9379 36.8683C89.9129 36.9413 89.9479 37.0345 89.968 37.1176C90.0382 37.4147 90.0031 37.7194 89.7599 37.9309C89.5393 38.1223 89.3739 38.3867 89.2185 38.641C88.8675 39.2176 88.5391 39.8118 88.1957 40.3935C88.128 40.5068 88.0052 40.5848 87.9375 40.6981C87.8197 40.8971 87.7345 41.1136 87.6166 41.3125C87.4687 41.5643 87.3083 41.8086 87.1404 42.0478C86.9549 42.3096 86.7493 42.5564 86.5563 42.8107C86.5362 42.8359 86.5437 42.8812 86.5312 42.9139C86.4936 42.9996 86.4535 43.0877 86.4084 43.1708C86.3683 43.2488 86.3181 43.3244 86.278 43.4049C86.2555 43.4478 86.2555 43.5233 86.2254 43.5334C85.9346 43.629 85.9622 43.9287 85.8293 44.1276C85.6263 44.4323 85.3981 44.7193 85.2051 45.029C84.8216 45.6459 84.4631 46.2754 84.0821 46.8898C83.8239 47.3053 83.5281 47.6955 83.2699 48.111C82.9465 48.6272 82.6507 49.161 82.3348 49.6797C82.0992 50.07 81.8485 50.4527 81.6079 50.8405C81.2519 51.4171 80.8834 51.9861 80.5475 52.5728C80.1865 53.2048 79.8356 53.8419 79.5247 54.4966C79.1788 55.2318 78.883 55.9922 78.5647 56.7401C78.3415 57.2613 78.1134 57.7825 77.8903 58.3037C77.6346 58.9055 77.3965 59.5123 77.1258 60.1066C76.8325 60.7512 76.5141 61.3832 76.2008 62.0152C75.9576 62.5062 75.7119 62.9972 75.4537 63.4806C75.2983 63.7702 75.1053 64.0396 74.9474 64.3292C74.8571 64.4979 74.807 64.6892 74.7318 64.8655C74.6641 65.0216 74.5764 65.1702 74.5112 65.3288C74.3858 65.6259 74.2981 65.9407 74.1427 66.2177C73.9923 66.4921 73.7717 66.7187 73.4232 66.754C73.3581 66.7615 73.2778 66.7968 73.2352 66.8471C72.9645 67.1518 72.5559 67.2022 72.2275 67.3986C72.1874 67.4212 72.1172 67.4288 72.1047 67.459C71.9969 67.7637 71.7412 67.7712 71.4855 67.7989C71.4253 67.8065 71.3276 67.8594 71.3201 67.9022C71.2824 68.1212 71.132 68.1036 70.9866 68.0885C70.7986 68.3227 70.6783 68.6399 70.2822 68.5493C70.2622 68.6273 70.2471 68.6928 70.2446 68.7004C69.9112 68.8086 69.6179 68.9043 69.3247 69L69.3472 68.9194C69.2394 68.859 69.1316 68.7986 69.0213 68.7381C68.9536 68.7004 68.8684 68.6827 68.8183 68.6299C68.5726 68.3554 68.3194 68.0835 68.2969 67.6806C68.2893 67.5723 68.2543 67.4615 68.2041 67.3633C68.0086 66.9831 67.9559 66.5676 67.8782 66.1547C67.8456 65.981 67.8782 65.7795 67.6977 65.6184C67.6075 65.5378 67.6752 65.2986 67.6401 65.1349C67.59 64.9058 67.5072 64.6842 67.4521 64.4576C67.407 64.2713 67.3944 64.0749 67.3493 63.8885C67.2891 63.6468 67.2541 63.4001 67.1212 63.1709C67.036 63.0224 67.0685 62.8083 67.0335 62.627C66.9357 62.1159 66.8379 61.6048 66.7251 61.0986C66.6399 60.7134 66.5196 60.3382 66.4343 59.953C66.2438 59.0918 66.0633 58.2282 65.8828 57.3645C65.7851 56.8936 65.6848 56.4228 65.6096 55.9494C65.5194 55.3804 65.4818 54.8037 65.3715 54.2397C65.2712 53.7235 65.2461 53.2023 65.2085 52.6836C65.1559 51.961 65.1358 51.2358 65.0882 50.5106C65.0606 50.0926 65.003 49.6797 64.9704 49.2617C64.9403 48.8765 64.9403 48.4862 64.9077 48.1009C64.8526 47.4261 64.7874 46.7513 64.7147 46.079C64.6645 45.6233 64.5918 45.17 64.5392 44.7143C64.5041 44.4172 64.4891 44.1175 64.454 43.8204C64.4389 43.6844 64.3863 43.551 64.3712 43.4125C64.3587 43.2916 64.3863 43.1657 64.3763 43.0424C64.3487 42.642 64.3161 42.2416 64.2735 41.8438C64.266 41.7683 64.2133 41.6978 64.1857 41.6373C64.2133 41.5618 64.2685 41.4837 64.266 41.4082C64.2484 41.0129 64.2284 40.6176 64.1832 40.2248C64.1507 39.9377 64.093 39.6532 64.0228 39.3737C64.0078 39.3107 63.8599 39.2176 63.8373 39.2327C63.6593 39.3586 63.5014 39.2125 63.3385 39.2176C63.0101 39.2277 62.6792 39.2528 62.3508 39.273C61.9848 39.2956 61.6188 39.3233 61.2528 39.3485C60.5559 39.3964 59.8565 39.4518 59.1571 39.487C58.4728 39.5223 57.7884 39.5298 57.1041 39.56C56.7256 39.5776 56.3495 39.6179 55.971 39.6356C55.7605 39.6456 55.5474 39.6305 55.3343 39.628C55.1789 39.6255 55.1237 39.6658 55.1789 39.842C55.3393 40.3683 55.4797 40.8996 55.6301 41.4309C55.6376 41.4535 55.6401 41.4787 55.6527 41.4989C55.9334 41.9596 55.9485 42.496 56.0663 43.0021C56.1966 43.5661 56.2844 44.1402 56.3646 44.7143C56.4498 45.3161 56.4649 45.9305 56.5852 46.5247C56.703 47.1139 56.7206 47.7006 56.6829 48.2923C56.6378 48.9923 56.5676 49.6923 56.51 50.3898C56.51 50.3973 56.51 50.4049 56.51 50.4124C56.5877 50.8505 56.4172 51.2559 56.342 51.6739C56.2142 52.389 56.0713 53.1016 55.9535 53.8167C55.8833 54.2422 55.8682 54.6778 55.783 55.1009C55.7354 55.3426 55.605 55.5692 55.5048 55.7983C55.2065 56.4857 54.9207 57.1782 54.5973 57.853C54.3567 58.3591 54.0809 58.8476 53.7926 59.3285C53.4617 59.8825 53.1208 60.4314 52.7473 60.9576C52.2835 61.6098 51.7546 62.2091 51.1956 62.7806C51.0828 62.8939 50.9976 63.035 50.8797 63.1457C50.5965 63.4152 50.3057 63.6745 50.0099 63.9313C49.8194 64.095 49.6213 64.2536 49.4208 64.4022C48.9596 64.7421 48.4958 65.077 48.0295 65.4119C47.9794 65.4497 47.9243 65.4824 47.8691 65.5126C47.7087 65.5982 47.7087 65.5982 47.7413 65.7367C47.5883 65.8349 47.443 65.918 47.3076 66.0187C47.0494 66.2101 46.7837 66.3964 46.5455 66.6105C45.979 67.1216 45.2721 67.3608 44.5802 67.6076C44.1791 67.7511 43.7304 67.7561 43.3118 67.8619C42.6851 68.0205 42.0534 68.0356 41.4141 68.0155C41.2913 68.013 41.1685 67.9727 41.0456 67.9425C40.9178 67.9097 40.795 67.8619 40.6671 67.8291C40.0931 67.6831 39.5516 67.4489 39.0277 67.172C38.7143 67.0058 38.3834 66.8622 38.1052 66.6507C37.7442 66.3763 37.4158 66.054 37.0899 65.7342C36.6513 65.3036 36.2251 64.8605 35.8015 64.4173C35.5959 64.2008 35.3578 63.9943 35.2174 63.7375C34.8714 63.113 34.5681 62.4659 34.2548 61.8238C34.2147 61.7432 34.2347 61.6375 34.2147 61.5443C34.0292 60.6832 34.1595 59.8094 34.1169 58.9433C34.1119 58.8652 34.0367 58.7922 34.0191 58.7116C34.0016 58.626 33.9891 58.5278 34.0141 58.4447C34.0818 58.2105 34.167 57.9814 34.2498 57.7523C34.2648 57.712 34.3074 57.6818 34.34 57.649C34.4704 57.5156 34.6032 57.3872 34.7286 57.2487C34.8389 57.1278 34.9366 56.9919 35.0444 56.871C35.2675 56.6192 35.5433 56.3976 35.7062 56.1106C35.8566 55.8487 36.0647 55.821 36.2978 55.7354C36.5008 55.6624 36.6838 55.4962 36.8342 55.3325C37.0298 55.121 37.1777 54.8642 37.3582 54.6376C37.5136 54.4437 37.9623 54.4286 38.1603 54.5897C38.2631 54.6728 38.3809 54.7433 38.4962 54.8088C38.9324 55.053 39.0979 55.4685 39.1981 55.9242C39.2057 55.9545 39.1981 55.9872 39.1931 56.0174C39.1505 56.4178 39.1029 56.8181 39.0628 57.2159C39.0377 57.4602 38.9976 57.7044 39.0101 57.9487C39.0427 58.5253 39.0828 59.0943 39.4614 59.5904C39.7296 59.9429 39.8875 60.381 40.1582 60.731C40.4766 61.144 40.8526 61.5166 41.2236 61.8842C41.4893 62.1486 41.7676 62.4181 42.0809 62.617C42.5472 62.9116 43.036 63.1911 43.5449 63.395C43.9284 63.5486 44.3621 63.6393 44.7782 63.6519C45.4225 63.672 46.0617 63.5486 46.6959 63.4051C47.1672 63.2993 47.3853 62.9519 47.631 62.627C47.9619 62.1864 48.2677 61.7231 48.5409 61.2447C48.6512 61.0483 48.769 60.8544 48.8793 60.6605C48.9295 60.5724 48.927 60.454 48.937 60.4037C49.0749 60.1897 49.2077 60.021 49.298 59.8296C49.6339 59.1145 49.9698 58.3969 50.2756 57.6692C50.3784 57.4224 50.3934 57.1354 50.4511 56.8685C50.5263 56.526 50.604 56.1836 50.6792 55.8411C50.6867 55.8109 50.7018 55.7782 50.6993 55.748C50.6892 55.2469 50.8447 54.771 50.9224 54.2825C50.99 53.852 51.0302 53.4163 51.0878 52.9807C51.148 52.5149 51.2432 52.0491 51.2708 51.5808C51.3109 50.8782 51.3134 50.1732 51.3159 49.4682C51.3159 49.0829 51.3159 48.6901 51.2608 48.3099C51.1179 47.333 50.9625 46.3585 50.777 45.3891C50.6466 44.7017 50.4711 44.0244 50.2932 43.347C50.2255 43.0902 50.0951 42.851 50.0049 42.5992C49.8269 42.1107 49.6765 41.6122 49.4785 41.1312C49.298 40.6931 49.0774 40.2726 48.8618 39.8521C48.7941 39.7212 48.6838 39.6129 48.5936 39.492C48.5184 39.3938 48.4432 39.2956 48.368 39.1949C48.3504 39.1697 48.3429 39.1143 48.3253 39.1143C48.0396 39.0841 48.0947 38.8097 47.9995 38.6485C47.9042 38.4899 48.0546 38.0669 48.2251 37.8881C48.2978 37.8126 48.3304 37.6993 48.403 37.6237C48.5685 37.45 48.739 37.2788 48.9194 37.1252C49.13 36.9439 49.3556 36.7802 49.5737 36.609C49.6364 36.5611 49.694 36.5083 49.7617 36.4655C49.9121 36.3698 50.0575 36.264 50.218 36.1935C50.406 36.1104 50.6115 36.0651 50.8071 35.9996C50.8747 35.977 50.96 35.9619 50.9976 35.914C51.1229 35.7554 51.2683 35.6899 51.4764 35.6748C51.5942 35.6673 51.6945 35.496 51.8198 35.4457C52.0329 35.3601 52.261 35.2644 52.4816 35.2619C52.6972 35.2593 52.9077 35.3349 53.0281 35C53.0632 35.1158 53.0857 35.1511 53.0807 35.1813C53.0356 35.4834 53.0356 35.4885 53.3514 35.496C54.116 35.5162 54.8806 35.5162 55.6451 35.5514C56.3119 35.5816 56.9788 35.6547 57.6456 35.6975C57.9288 35.7151 58.2146 35.7126 58.4979 35.7151C58.9215 35.7201 59.3426 35.7201 59.7663 35.7252C60.1523 35.7302 60.5384 35.7428 60.9244 35.7403C61.3431 35.7378 61.7592 35.7252 62.1778 35.7101C63.5716 35.6597 64.9679 35.6043 66.3616 35.5565C66.9181 35.5388 67.4772 35.5414 68.0337 35.5237C68.154 35.5187 68.2768 35.4759 68.3921 35.4331C68.5776 35.3626 68.718 35.3928 68.891 35.5111C69.084 35.6421 69.2194 35.7957 69.3196 35.9946C69.3973 36.1457 69.4776 36.2917 69.5578 36.4403C69.5753 36.4755 69.5854 36.5234 69.6129 36.5435C70.0441 36.8734 69.8636 37.3241 69.8586 37.7446C69.8561 37.9586 69.8185 38.1651 69.9037 38.3967C69.9539 38.5352 70.1419 38.7769 69.9137 39.0136C69.826 39.1068 69.8837 39.414 69.9639 39.5802C70.0491 39.7589 70.0491 39.8999 69.9889 40.0687C69.9614 40.1467 69.9589 40.2323 69.9438 40.3129C69.9614 40.3154 69.9814 40.3204 69.999 40.323L70.014 40.3431Z" fill="#3B3398"/>
</svg>
